<svg viewBox="0 0 1000 270" xmlns="http://www.w3.org/2000/svg" font-family="-apple-system,'Helvetica Neue',Arial,'Apple SD Gothic Neo','Malgun Gothic',sans-serif">
  <defs>
    <marker id="ar" viewBox="0 0 10 10" refX="9" refY="5" markerWidth="7" markerHeight="7" orient="auto-start-reverse">
      <path d="M0,0 L10,5 L0,10 z" fill="#555555"/>
    </marker>
  </defs>

  <rect x="0" y="0" width="1000" height="270" fill="#ffffff"/>
  <text x="16" y="30" font-size="16" font-weight="600" fill="#333333">스마트 저널 미러 · 아키텍처</text>

  <g stroke="#555555" stroke-width="1.6" marker-end="url(#ar)">
    <line x1="166" y1="152" x2="198" y2="152"/>
    <line x1="295" y1="152" x2="327" y2="152"/>
    <line x1="484" y1="152" x2="516" y2="152"/>
    <line x1="613" y1="152" x2="645" y2="152"/>
    <line x1="797" y1="152" x2="829" y2="152"/>
  </g>
  <g font-size="11" fill="#444444" text-anchor="middle">
    <text x="311" y="104">읽기</text>
    <text x="501" y="104">쓰기</text>
    <text x="629" y="104">Bearer</text>
    <text x="813" y="96">HTTP·1분</text><text x="813" y="108" fill="#888888">내부망</text>
  </g>

  <g fill="#ededed" stroke="#444444" stroke-width="1.4">
    <rect x="16" y="110" width="150" height="84"/>
    <rect x="329" y="110" width="155" height="84"/>
    <rect x="647" y="110" width="150" height="84"/>
    <rect x="831" y="110" width="150" height="84"/>
  </g>
  <g fill="#f6f6f6" stroke="#888888" stroke-width="1.2" stroke-dasharray="4 3">
    <rect x="200" y="124" width="95" height="56"/>
    <rect x="518" y="124" width="95" height="56"/>
  </g>

  <g stroke="#444444" stroke-width="1.4" fill="none">
    <rect x="83" y="127" width="16" height="16"/>
  </g>
  <rect x="87" y="131" width="8" height="8" fill="#444444"/>

  <g stroke="#333333" stroke-width="1.5" stroke-linecap="round">
    <line x1="398.5" y1="135" x2="414.5" y2="135"/>
    <line x1="406.5" y1="127" x2="406.5" y2="143"/>
    <line x1="399.6" y1="131" x2="413.4" y2="139"/>
    <line x1="402.5" y1="128.1" x2="410.5" y2="141.9"/>
    <line x1="410.5" y1="128.1" x2="402.5" y2="141.9"/>
    <line x1="413.4" y1="131" x2="399.6" y2="139"/>
  </g>

  <g text-anchor="middle">
    <text x="91" y="178" font-size="12.5" font-weight="600" fill="#2a2a2a">AFFiNE 저널</text>
    <text x="406.5" y="178" font-size="12.5" font-weight="600" fill="#2a2a2a">Scheduled Claude</text>

    <text x="247.5" y="156" font-size="11" fill="#555555">connector</text>
    <text x="247.5" y="194" font-size="9.5" fill="#aaaaaa">공개 HTTPS</text>
    <text x="565.5" y="156" font-size="11" fill="#555555">connector</text>
    <text x="565.5" y="194" font-size="9.5" fill="#aaaaaa">공개 HTTPS</text>

    <text x="722" y="148" font-size="13" font-weight="600" fill="#2a2a2a">feed-server</text>
    <text x="722" y="168" font-size="10" fill="#777777">FastAPI</text>
    <text x="906" y="148" font-size="13" font-weight="600" fill="#2a2a2a">MagicMirror</text>
    <text x="906" y="168" font-size="10" fill="#777777">systemd</text>
  </g>

  <text x="16" y="240" font-size="10.5" fill="#999999">점선 = OAuth 커넥터(공개 HTTPS) · Claude는 커넥터로 읽기·쓰기 · MagicMirror는 내부망 HTTP(1분)로 feed-server 폴링</text>
</svg>
